<svg version="1.1" xmlns="http://www.w3.org/2000/svg" xmlns:xlink="http://www.w3.org/1999/xlink" width="1540" height="948"><defs/><g><g><path fill="none" stroke="#000000" paint-order="fill stroke markers" d=" M 10 10 L 1530 10 L 1530 938 L 10 938 L 10 10" stroke-miterlimit="10" stroke-dasharray=""/></g><g><path fill="#ffffff" stroke="none" paint-order="stroke fill markers" d=" M 10 10 L 10 33 L 91.72998046875 33 L 103.22998046875 21.5 L 103.22998046875 10 L 10 10"/></g><g><path fill="none" stroke="#000000" paint-order="fill stroke markers" d=" M 10 10 L 10 33 L 91.72998046875 33 L 103.22998046875 21.5 L 103.22998046875 10 L 10 10 L 10 10" stroke-miterlimit="10" stroke-dasharray=""/></g><g><g><path fill="none" stroke="none"/><text fill="#000000" stroke="none" font-family="Arial" font-size="13px" font-style="normal" font-weight="normal" text-decoration="undefined" x="50.72998046875" y="11.5" text-anchor="middle" dominant-baseline="central" transform="matrix(1 0 0 1 10 10)">交易链路</text></g></g><g><g><path fill="none" stroke="none"/><text fill="#000000" stroke="none" font-family="Arial" font-size="13px" font-style="normal" font-weight="bold" text-decoration="undefined" x="11.864990234375" y="11.5" text-anchor="middle" dominant-baseline="central" transform="matrix(1 0 0 1 10 10)">sd</text></g></g><g><rect fill="#C0C0C0" stroke="none" x="327" y="47" width="72.736328125" height="40" transform="matrix(1 0 0 1 10 10)" fill-opacity="0.2"/></g><g><rect fill="#ffffff" stroke="none" x="320" y="40" width="72.736328125" height="40" transform="matrix(1 0 0 1 10 10)"/></g><g><path fill="none" stroke="#000000" paint-order="fill stroke markers" d=" M 330 50 L 402.736328125 50 L 402.736328125 90 L 330 90 L 330 50 Z Z" stroke-miterlimit="10" stroke-dasharray=""/></g><g><g><path fill="none" stroke="none"/><text fill="#000000" stroke="none" font-family="Arial" font-size="13px" font-style="normal" font-weight="bold" text-decoration="undefined" x="356.8681640625" y="53.5" text-anchor="middle" dominant-baseline="central" transform="matrix(1 0 0 1 10 10)">Redis</text></g></g><g><path fill="none" stroke="#000000" paint-order="fill stroke markers" d=" M 366.5 91 L 366.5 922" stroke-miterlimit="10" stroke-dasharray="3"/></g><g><rect fill="#C0C0C0" stroke="none" x="55" y="47" width="77.07177734375" height="40" transform="matrix(1 0 0 1 10 10)" fill-opacity="0.2"/></g><g><rect fill="#ffffff" stroke="none" x="48" y="40" width="77.07177734375" height="40" transform="matrix(1 0 0 1 10 10)"/></g><g><path fill="none" stroke="#000000" paint-order="fill stroke markers" d=" M 58 50 L 135.07177734375 50 L 135.07177734375 90 L 58 90 L 58 50 Z Z" stroke-miterlimit="10" stroke-dasharray=""/></g><g><g><path fill="none" stroke="none"/><text fill="#000000" stroke="none" font-family="Arial" font-size="13px" font-style="normal" font-weight="bold" text-decoration="undefined" x="87.035888671875" y="53.5" text-anchor="middle" dominant-baseline="central" transform="matrix(1 0 0 1 10 10)">Server</text></g></g><g><path fill="none" stroke="#000000" paint-order="fill stroke markers" d=" M 97.5 91 L 97.5 922" stroke-miterlimit="10" stroke-dasharray="3"/></g><g><rect fill="#C0C0C0" stroke="none" x="583" y="47" width="120.1025390625" height="40" transform="matrix(1 0 0 1 10 10)" fill-opacity="0.2"/></g><g><rect fill="#ffffff" stroke="none" x="576" y="40" width="120.1025390625" height="40" transform="matrix(1 0 0 1 10 10)"/></g><g><path fill="none" stroke="#000000" paint-order="fill stroke markers" d=" M 586 50 L 706.1025390625 50 L 706.1025390625 90 L 586 90 L 586 50 Z Z" stroke-miterlimit="10" stroke-dasharray=""/></g><g><g><path fill="none" stroke="none"/><text fill="#000000" stroke="none" font-family="Arial" font-size="13px" font-style="normal" font-weight="bold" text-decoration="undefined" x="636.55126953125" y="53.5" text-anchor="middle" dominant-baseline="central" transform="matrix(1 0 0 1 10 10)">MessageQueue</text></g></g><g><path fill="none" stroke="#000000" paint-order="fill stroke markers" d=" M 646.5 91 L 646.5 922" stroke-miterlimit="10" stroke-dasharray="3"/></g><g><rect fill="#C0C0C0" stroke="none" x="847" y="47" width="133.03271484375" height="40" transform="matrix(1 0 0 1 10 10)" fill-opacity="0.2"/></g><g><rect fill="#ffffff" stroke="none" x="840" y="40" width="133.03271484375" height="40" transform="matrix(1 0 0 1 10 10)"/></g><g><path fill="none" stroke="#000000" paint-order="fill stroke markers" d=" M 850 50 L 983.03271484375 50 L 983.03271484375 90 L 850 90 L 850 50 Z Z" stroke-miterlimit="10" stroke-dasharray=""/></g><g><g><path fill="none" stroke="none"/><text fill="#000000" stroke="none" font-family="Arial" font-size="13px" font-style="normal" font-weight="bold" text-decoration="undefined" x="907.016357421875" y="53.5" text-anchor="middle" dominant-baseline="central" transform="matrix(1 0 0 1 10 10)">MySQL-PayOrder</text></g></g><g><path fill="none" stroke="#000000" paint-order="fill stroke markers" d=" M 917.5 91 L 917.5 922" stroke-miterlimit="10" stroke-dasharray="3"/></g><g><rect fill="#C0C0C0" stroke="none" x="1087" y="47" width="138.447265625" height="40" transform="matrix(1 0 0 1 10 10)" fill-opacity="0.2"/></g><g><rect fill="#ffffff" stroke="none" x="1080" y="40" width="138.447265625" height="40" transform="matrix(1 0 0 1 10 10)"/></g><g><path fill="none" stroke="#000000" paint-order="fill stroke markers" d=" M 1090 50 L 1228.447265625 50 L 1228.447265625 90 L 1090 90 L 1090 50 Z Z" stroke-miterlimit="10" stroke-dasharray=""/></g><g><g><path fill="none" stroke="none"/><text fill="#000000" stroke="none" font-family="Arial" font-size="13px" font-style="normal" font-weight="bold" text-decoration="undefined" x="1149.7236328125" y="53.5" text-anchor="middle" dominant-baseline="central" transform="matrix(1 0 0 1 10 10)">MySQL-MallOrder</text></g></g><g><path fill="none" stroke="#000000" paint-order="fill stroke markers" d=" M 1159.5 91 L 1159.5 922" stroke-miterlimit="10" stroke-dasharray="3"/></g><g><rect fill="#C0C0C0" stroke="none" x="1311" y="47" width="185.9404296875" height="40" transform="matrix(1 0 0 1 10 10)" fill-opacity="0.2"/></g><g><rect fill="#ffffff" stroke="none" x="1304" y="40" width="185.9404296875" height="40" transform="matrix(1 0 0 1 10 10)"/></g><g><path fill="none" stroke="#000000" paint-order="fill stroke markers" d=" M 1314 50 L 1499.9404296875 50 L 1499.9404296875 90 L 1314 90 L 1314 50 Z Z" stroke-miterlimit="10" stroke-dasharray=""/></g><g><g><path fill="none" stroke="none"/><text fill="#000000" stroke="none" font-family="Arial" font-size="13px" font-style="normal" font-weight="bold" text-decoration="undefined" x="1397.47021484375" y="53.5" text-anchor="middle" dominant-baseline="central" transform="matrix(1 0 0 1 10 10)">MySQL-GroupBuy</text></g></g><g><path fill="none" stroke="#000000" paint-order="fill stroke markers" d=" M 1407.5 91 L 1407.5 922" stroke-miterlimit="10" stroke-dasharray="3"/></g><g><path fill="none" stroke="#000000" paint-order="fill stroke markers" d=" M 98 106 L 1400 106" stroke-miterlimit="10" stroke-dasharray=""/></g><g><path fill="#000000" stroke="none" paint-order="stroke fill markers" d=" M 1389.837325142376 110.20951775601598 L 1400 106 L 1389.837325142376 101.79048224398402"/></g><g><path fill="none" stroke="#000000" paint-order="fill stroke markers" d=" M 1389.837325142376 110.20951775601598 L 1400 106 L 1389.837325142376 101.79048224398402 L 1389.837325142376 110.20951775601598" stroke-miterlimit="10" stroke-dasharray=""/></g><g><rect fill="#ffffff" stroke="none" x="697" y="80" width="85.2744140625" height="13" transform="matrix(1 0 0 1 10 10)"/></g><g><g><path fill="none" stroke="none"/><text fill="#000000" stroke="none" font-family="Arial" font-size="13px" font-style="normal" font-weight="normal" text-decoration="undefined" x="739.63720703125" y="86.5" text-anchor="middle" dominant-baseline="central" transform="matrix(1 0 0 1 10 10)">1 : 同步库存</text></g></g><g><rect fill="#ffffff" stroke="none" x="1390" y="96" width="14" height="28" transform="matrix(1 0 0 1 10 10)"/></g><g><path fill="none" stroke="#000000" paint-order="fill stroke markers" d=" M 1400 106 L 1414 106 L 1414 134 L 1400 134 L 1400 106 Z Z" stroke-miterlimit="10" stroke-dasharray=""/></g><g><path fill="none" stroke="#000000" paint-order="fill stroke markers" d=" M 1400 122 L 98 122" stroke-miterlimit="10" stroke-dasharray="3"/></g><g><path fill="none" stroke="#000000" paint-order="fill stroke markers" d=" M 108.16267485762415 117.79048224398402 L 98 122 L 108.16267485762415 126.20951775601598" stroke-miterlimit="10" stroke-dasharray=""/></g><g><rect fill="#ffffff" stroke="none" x="710" y="116" width="57.4462890625" height="13" transform="matrix(1 0 0 1 10 10)"/></g><g><g><path fill="none" stroke="none"/><text fill="#000000" stroke="none" font-family="Arial" font-size="13px" font-style="normal" font-weight="normal" text-decoration="undefined" x="738.72314453125" y="122.5" text-anchor="middle" dominant-baseline="central" transform="matrix(1 0 0 1 10 10)">2 : 库存数</text></g></g><g><path fill="none" stroke="#000000" paint-order="fill stroke markers" d=" M 98 146 L 359 146" stroke-miterlimit="10" stroke-dasharray=""/></g><g><path fill="#000000" stroke="none" paint-order="stroke fill markers" d=" M 348.83732514237585 150.209517756016 L 359 146 L 348.83732514237585 141.790482243984"/></g><g><path fill="none" stroke="#000000" paint-order="fill stroke markers" d=" M 348.83732514237585 150.209517756016 L 359 146 L 348.83732514237585 141.790482243984 L 348.83732514237585 150.209517756016" stroke-miterlimit="10" stroke-dasharray=""/></g><g><rect fill="#ffffff" stroke="none" x="177" y="120" width="83.4462890625" height="13" transform="matrix(1 0 0 1 10 10)"/></g><g><g><path fill="none" stroke="none"/><text fill="#000000" stroke="none" font-family="Arial" font-size="13px" font-style="normal" font-weight="normal" text-decoration="undefined" x="218.72314453125" y="126.5" text-anchor="middle" dominant-baseline="central" transform="matrix(1 0 0 1 10 10)">3 : 同步库存数</text></g></g><g><rect fill="#ffffff" stroke="none" x="349" y="136" width="14" height="28" transform="matrix(1 0 0 1 10 10)"/></g><g><path fill="none" stroke="#000000" paint-order="fill stroke markers" d=" M 359 146 L 373 146 L 373 174 L 359 174 L 359 146 Z Z" stroke-miterlimit="10" stroke-dasharray=""/></g><g><path fill="none" stroke="#000000" paint-order="fill stroke markers" d=" M 98 218 L 359 218" stroke-miterlimit="10" stroke-dasharray=""/></g><g><path fill="#000000" stroke="none" paint-order="stroke fill markers" d=" M 348.83732514237585 222.209517756016 L 359 218 L 348.83732514237585 213.790482243984"/></g><g><path fill="none" stroke="#000000" paint-order="fill stroke markers" d=" M 348.83732514237585 222.209517756016 L 359 218 L 348.83732514237585 213.790482243984 L 348.83732514237585 222.209517756016" stroke-miterlimit="10" stroke-dasharray=""/></g><g><rect fill="#ffffff" stroke="none" x="157" y="192" width="122.4462890625" height="13" transform="matrix(1 0 0 1 10 10)"/></g><g><g><path fill="none" stroke="none"/><text fill="#000000" stroke="none" font-family="Arial" font-size="13px" font-style="normal" font-weight="normal" text-decoration="undefined" x="218.22314453125" y="198.5" text-anchor="middle" dominant-baseline="central" transform="matrix(1 0 0 1 10 10)">4 : 预下单，扣除库存</text></g></g><g><rect fill="#ffffff" stroke="none" x="349" y="208" width="14" height="28" transform="matrix(1 0 0 1 10 10)"/></g><g><path fill="none" stroke="#000000" paint-order="fill stroke markers" d=" M 359 218 L 373 218 L 373 246 L 359 246 L 359 218 Z Z" stroke-miterlimit="10" stroke-dasharray=""/></g><g><path fill="none" stroke="#000000" paint-order="fill stroke markers" d=" M 359 226 L 98 226" stroke-miterlimit="10" stroke-dasharray="3"/></g><g><path fill="none" stroke="#000000" paint-order="fill stroke markers" d=" M 108.16267485762415 221.790482243984 L 98 226 L 108.16267485762415 230.209517756016" stroke-miterlimit="10" stroke-dasharray=""/></g><g><rect fill="#ffffff" stroke="none" x="159" y="220" width="116.7080078125" height="13" transform="matrix(1 0 0 1 10 10)"/></g><g><g><path fill="none" stroke="none"/><text fill="#000000" stroke="none" font-family="Arial" font-size="13px" font-style="normal" font-weight="normal" text-decoration="undefined" x="217.35400390625" y="226.5" text-anchor="middle" dominant-baseline="central" transform="matrix(1 0 0 1 10 10)">5 : Redis中库存数量</text></g></g><g><path fill="none" stroke="#000000" paint-order="fill stroke markers" d=" M 98 250 L 910 250" stroke-miterlimit="10" stroke-dasharray=""/></g><g><path fill="#000000" stroke="none" paint-order="stroke fill markers" d=" M 899.8373251423759 254.209517756016 L 910 250 L 899.8373251423758 245.790482243984"/></g><g><path fill="none" stroke="#000000" paint-order="fill stroke markers" d=" M 899.8373251423759 254.209517756016 L 910 250 L 899.8373251423758 245.790482243984 L 899.8373251423759 254.209517756016" stroke-miterlimit="10" stroke-dasharray=""/></g><g><rect fill="#ffffff" stroke="none" x="440" y="224" width="109.4462890625" height="13" transform="matrix(1 0 0 1 10 10)"/></g><g><g><path fill="none" stroke="none"/><text fill="#000000" stroke="none" font-family="Arial" font-size="13px" font-style="normal" font-weight="normal" text-decoration="undefined" x="494.72314453125" y="230.5" text-anchor="middle" dominant-baseline="central" transform="matrix(1 0 0 1 10 10)">6 : 预创建支付订单</text></g></g><g><rect fill="#ffffff" stroke="none" x="900" y="240" width="14" height="28" transform="matrix(1 0 0 1 10 10)"/></g><g><path fill="none" stroke="#000000" paint-order="fill stroke markers" d=" M 910 250 L 924 250 L 924 278 L 910 278 L 910 250 Z Z" stroke-miterlimit="10" stroke-dasharray=""/></g><g><path fill="none" stroke="#000000" paint-order="fill stroke markers" d=" M 910 258 L 98 258" stroke-miterlimit="10" stroke-dasharray="3"/></g><g><path fill="none" stroke="#000000" paint-order="fill stroke markers" d=" M 108.16267485762415 253.790482243984 L 98 258 L 108.16267485762415 262.209517756016" stroke-miterlimit="10" stroke-dasharray=""/></g><g><rect fill="#ffffff" stroke="none" x="445" y="252" width="96.4462890625" height="13" transform="matrix(1 0 0 1 10 10)"/></g><g><g><path fill="none" stroke="none"/><text fill="#000000" stroke="none" font-family="Arial" font-size="13px" font-style="normal" font-weight="normal" text-decoration="undefined" x="493.22314453125" y="258.5" text-anchor="middle" dominant-baseline="central" transform="matrix(1 0 0 1 10 10)">7 : 返回创建结果</text></g></g><g><path fill="none" stroke="#000000" paint-order="fill stroke markers" d=" M 98 282 L 1152 282" stroke-miterlimit="10" stroke-dasharray=""/></g><g><path fill="#000000" stroke="none" paint-order="stroke fill markers" d=" M 1141.837325142376 286.209517756016 L 1152 282 L 1141.837325142376 277.790482243984"/></g><g><path fill="none" stroke="#000000" paint-order="fill stroke markers" d=" M 1141.837325142376 286.209517756016 L 1152 282 L 1141.837325142376 277.790482243984 L 1141.837325142376 286.209517756016" stroke-miterlimit="10" stroke-dasharray=""/></g><g><rect fill="#ffffff" stroke="none" x="557" y="256" width="116.29541015625" height="13" transform="matrix(1 0 0 1 10 10)"/></g><g><g><path fill="none" stroke="none"/><text fill="#000000" stroke="none" font-family="Arial" font-size="13px" font-style="normal" font-weight="normal" text-decoration="undefined" x="615.147705078125" y="262.5" text-anchor="middle" dominant-baseline="central" transform="matrix(1 0 0 1 10 10)">8 : 预创建商品订单</text></g></g><g><rect fill="#ffffff" stroke="none" x="1142" y="272" width="14" height="28" transform="matrix(1 0 0 1 10 10)"/></g><g><path fill="none" stroke="#000000" paint-order="fill stroke markers" d=" M 1152 282 L 1166 282 L 1166 310 L 1152 310 L 1152 282 Z Z" stroke-miterlimit="10" stroke-dasharray=""/></g><g><path fill="none" stroke="#000000" paint-order="fill stroke markers" d=" M 1152 290 L 98 290" stroke-miterlimit="10" stroke-dasharray="3"/></g><g><path fill="none" stroke="#000000" paint-order="fill stroke markers" d=" M 108.16267485762415 285.790482243984 L 98 290 L 108.16267485762415 294.209517756016" stroke-miterlimit="10" stroke-dasharray=""/></g><g><rect fill="#ffffff" stroke="none" x="563" y="284" width="103.29541015625" height="13" transform="matrix(1 0 0 1 10 10)"/></g><g><g><path fill="none" stroke="none"/><text fill="#000000" stroke="none" font-family="Arial" font-size="13px" font-style="normal" font-weight="normal" text-decoration="undefined" x="614.647705078125" y="290.5" text-anchor="middle" dominant-baseline="central" transform="matrix(1 0 0 1 10 10)">9 : 返回创建结果</text></g></g><g><path fill="none" stroke="#000000" paint-order="fill stroke markers" d=" M 98 314 L 639 314" stroke-miterlimit="10" stroke-dasharray=""/></g><g><path fill="#000000" stroke="none" paint-order="stroke fill markers" d=" M 628.8373251423759 318.209517756016 L 639 314 L 628.8373251423758 309.790482243984"/></g><g><path fill="none" stroke="#000000" paint-order="fill stroke markers" d=" M 628.8373251423759 318.209517756016 L 639 314 L 628.8373251423758 309.790482243984 L 628.8373251423759 318.209517756016" stroke-miterlimit="10" stroke-dasharray=""/></g><g><rect fill="#ffffff" stroke="none" x="255" y="288" width="207.86669921875" height="13" transform="matrix(1 0 0 1 10 10)"/></g><g><g><path fill="none" stroke="none"/><text fill="#000000" stroke="none" font-family="Arial" font-size="13px" font-style="normal" font-weight="normal" text-decoration="undefined" x="358.933349609375" y="294.5" text-anchor="middle" dominant-baseline="central" transform="matrix(1 0 0 1 10 10)">10 : GroupPayOderStatus延迟消息</text></g></g><g><rect fill="#ffffff" stroke="none" x="629" y="304" width="14" height="464" transform="matrix(1 0 0 1 10 10)"/></g><g><path fill="none" stroke="#000000" paint-order="fill stroke markers" d=" M 639 314 L 653 314 L 653 778 L 639 778 L 639 314 Z Z" stroke-miterlimit="10" stroke-dasharray=""/></g><g><path fill="none" stroke="#000000" paint-order="fill stroke markers" d=" M 98 394 L 910 394" stroke-miterlimit="10" stroke-dasharray=""/></g><g><path fill="#000000" stroke="none" paint-order="stroke fill markers" d=" M 899.8373251423759 398.209517756016 L 910 394 L 899.8373251423758 389.790482243984"/></g><g><path fill="none" stroke="#000000" paint-order="fill stroke markers" d=" M 899.8373251423759 398.209517756016 L 910 394 L 899.8373251423758 389.790482243984 L 899.8373251423759 398.209517756016" stroke-miterlimit="10" stroke-dasharray=""/></g><g><rect fill="#ffffff" stroke="none" x="402" y="368" width="185.42138671875" height="13" transform="matrix(1 0 0 1 10 10)"/></g><g><g><path fill="none" stroke="none"/><text fill="#000000" stroke="none" font-family="Arial" font-size="13px" font-style="normal" font-weight="normal" text-decoration="undefined" x="494.710693359375" y="374.5" text-anchor="middle" dominant-baseline="central" transform="matrix(1 0 0 1 10 10)">11 : 根据OrderID获取PayOrder</text></g></g><g><rect fill="#ffffff" stroke="none" x="900" y="384" width="14" height="28" transform="matrix(1 0 0 1 10 10)"/></g><g><path fill="none" stroke="#000000" paint-order="fill stroke markers" d=" M 910 394 L 924 394 L 924 422 L 910 422 L 910 394 Z Z" stroke-miterlimit="10" stroke-dasharray=""/></g><g><path fill="none" stroke="#000000" paint-order="fill stroke markers" d=" M 910 402 L 98 402" stroke-miterlimit="10" stroke-dasharray="3"/></g><g><path fill="none" stroke="#000000" paint-order="fill stroke markers" d=" M 108.16267485762415 397.790482243984 L 98 402 L 108.16267485762415 406.209517756016" stroke-miterlimit="10" stroke-dasharray=""/></g><g><rect fill="#ffffff" stroke="none" x="394" y="396" width="198.42138671875" height="13" transform="matrix(1 0 0 1 10 10)"/></g><g><g><path fill="none" stroke="none"/><text fill="#000000" stroke="none" font-family="Arial" font-size="13px" font-style="normal" font-weight="normal" text-decoration="undefined" x="493.210693359375" y="402.5" text-anchor="middle" dominant-baseline="central" transform="matrix(1 0 0 1 10 10)">12 : 返回OrderID对应的PayOrder</text></g></g><g><path fill="none" stroke="#000000" paint-order="fill stroke markers" d=" M 98 442 L 910 442" stroke-miterlimit="10" stroke-dasharray=""/></g><g><path fill="#000000" stroke="none" paint-order="stroke fill markers" d=" M 899.8373251423759 446.209517756016 L 910 442 L 899.8373251423758 437.790482243984"/></g><g><path fill="none" stroke="#000000" paint-order="fill stroke markers" d=" M 899.8373251423759 446.209517756016 L 910 442 L 899.8373251423758 437.790482243984 L 899.8373251423759 446.209517756016" stroke-miterlimit="10" stroke-dasharray=""/></g><g><rect fill="#ffffff" stroke="none" x="414" y="416" width="161.66845703125" height="13" transform="matrix(1 0 0 1 10 10)"/></g><g><g><path fill="none" stroke="none"/><text fill="#000000" stroke="none" font-family="Arial" font-size="13px" font-style="normal" font-weight="normal" text-decoration="undefined" x="494.834228515625" y="422.5" text-anchor="middle" dominant-baseline="central" transform="matrix(1 0 0 1 10 10)">13 : 更新PayOrder付款状态</text></g></g><g><rect fill="#ffffff" stroke="none" x="900" y="432" width="14" height="28" transform="matrix(1 0 0 1 10 10)"/></g><g><path fill="none" stroke="#000000" paint-order="fill stroke markers" d=" M 910 442 L 924 442 L 924 470 L 910 470 L 910 442 Z Z" stroke-miterlimit="10" stroke-dasharray=""/></g><g><path fill="none" stroke="#000000" paint-order="fill stroke markers" d=" M 910 450 L 98 450" stroke-miterlimit="10" stroke-dasharray="3"/></g><g><path fill="none" stroke="#000000" paint-order="fill stroke markers" d=" M 108.16267485762415 445.790482243984 L 98 450 L 108.16267485762415 454.209517756016" stroke-miterlimit="10" stroke-dasharray=""/></g><g><rect fill="#ffffff" stroke="none" x="454" y="444" width="78.06982421875" height="13" transform="matrix(1 0 0 1 10 10)"/></g><g><g><path fill="none" stroke="none"/><text fill="#000000" stroke="none" font-family="Arial" font-size="13px" font-style="normal" font-weight="normal" text-decoration="undefined" x="493.034912109375" y="450.5" text-anchor="middle" dominant-baseline="central" transform="matrix(1 0 0 1 10 10)">14 : 更新结果</text></g></g><g><path fill="none" stroke="#000000" paint-order="fill stroke markers" d=" M 98 482 L 1152 482" stroke-miterlimit="10" stroke-dasharray=""/></g><g><path fill="#000000" stroke="none" paint-order="stroke fill markers" d=" M 1141.837325142376 486.209517756016 L 1152 482 L 1141.837325142376 477.790482243984"/></g><g><path fill="none" stroke="#000000" paint-order="fill stroke markers" d=" M 1141.837325142376 486.209517756016 L 1152 482 L 1141.837325142376 477.790482243984 L 1141.837325142376 486.209517756016" stroke-miterlimit="10" stroke-dasharray=""/></g><g><rect fill="#ffffff" stroke="none" x="545" y="456" width="140.9052734375" height="13" transform="matrix(1 0 0 1 10 10)"/></g><g><g><path fill="none" stroke="none"/><text fill="#000000" stroke="none" font-family="Arial" font-size="13px" font-style="normal" font-weight="normal" text-decoration="undefined" x="615.45263671875" y="462.5" text-anchor="middle" dominant-baseline="central" transform="matrix(1 0 0 1 10 10)">15 : 更新MallOrder状态</text></g></g><g><rect fill="#ffffff" stroke="none" x="1142" y="472" width="14" height="28" transform="matrix(1 0 0 1 10 10)"/></g><g><path fill="none" stroke="#000000" paint-order="fill stroke markers" d=" M 1152 482 L 1166 482 L 1166 510 L 1152 510 L 1152 482 Z Z" stroke-miterlimit="10" stroke-dasharray=""/></g><g><path fill="none" stroke="#000000" paint-order="fill stroke markers" d=" M 1152 490 L 98 490" stroke-miterlimit="10" stroke-dasharray="3"/></g><g><path fill="none" stroke="#000000" paint-order="fill stroke markers" d=" M 108.16267485762415 485.790482243984 L 98 490 L 108.16267485762415 494.209517756016" stroke-miterlimit="10" stroke-dasharray=""/></g><g><rect fill="#ffffff" stroke="none" x="575" y="484" width="78.06982421875" height="13" transform="matrix(1 0 0 1 10 10)"/></g><g><g><path fill="none" stroke="none"/><text fill="#000000" stroke="none" font-family="Arial" font-size="13px" font-style="normal" font-weight="normal" text-decoration="undefined" x="614.034912109375" y="490.5" text-anchor="middle" dominant-baseline="central" transform="matrix(1 0 0 1 10 10)">16 : 更新结果</text></g></g><g><path fill="none" stroke="#000000" paint-order="fill stroke markers" d=" M 98 514 L 646 514" stroke-miterlimit="10" stroke-dasharray=""/></g><g><path fill="#000000" stroke="none" paint-order="stroke fill markers" d=" M 635.8373251423759 518.209517756016 L 646 514 L 635.8373251423758 509.790482243984"/></g><g><path fill="none" stroke="#000000" paint-order="fill stroke markers" d=" M 635.8373251423759 518.209517756016 L 646 514 L 635.8373251423758 509.790482243984 L 635.8373251423759 518.209517756016" stroke-miterlimit="10" stroke-dasharray=""/></g><g><rect fill="#ffffff" stroke="none" x="289" y="488" width="147.697265625" height="13" transform="matrix(1 0 0 1 10 10)"/></g><g><g><path fill="none" stroke="none"/><text fill="#000000" stroke="none" font-family="Arial" font-size="13px" font-style="normal" font-weight="normal" text-decoration="undefined" x="362.8486328125" y="494.5" text-anchor="middle" dominant-baseline="central" transform="matrix(1 0 0 1 10 10)">17 : Trigger消息触发发卷</text></g></g><g><rect fill="#ffffff" stroke="none" x="636" y="504" width="14" height="72" transform="matrix(1 0 0 1 10 10)"/></g><g><path fill="none" stroke="#000000" paint-order="fill stroke markers" d=" M 646 514 L 660 514 L 660 586 L 646 586 L 646 514 Z Z" stroke-miterlimit="10" stroke-dasharray=""/></g><g><path fill="none" stroke="#000000" paint-order="fill stroke markers" d=" M 646 578 L 98 578" stroke-miterlimit="10" stroke-dasharray="3"/></g><g><path fill="none" stroke="#000000" paint-order="fill stroke markers" d=" M 108.16267485762415 573.790482243984 L 98 578 L 108.16267485762415 582.209517756016" stroke-miterlimit="10" stroke-dasharray=""/></g><g><rect fill="#ffffff" stroke="none" x="314" y="572" width="95.697265625" height="13" transform="matrix(1 0 0 1 10 10)"/></g><g><g><path fill="none" stroke="none"/><text fill="#000000" stroke="none" font-family="Arial" font-size="13px" font-style="normal" font-weight="normal" text-decoration="undefined" x="361.8486328125" y="578.5" text-anchor="middle" dominant-baseline="central" transform="matrix(1 0 0 1 10 10)">18 : Trigger消息</text></g></g><g><path fill="none" stroke="#000000" paint-order="fill stroke markers" d=" M 98 610 L 1152 610" stroke-miterlimit="10" stroke-dasharray=""/></g><g><path fill="#000000" stroke="none" paint-order="stroke fill markers" d=" M 1141.837325142376 614.209517756016 L 1152 610 L 1141.837325142376 605.790482243984"/></g><g><path fill="none" stroke="#000000" paint-order="fill stroke markers" d=" M 1141.837325142376 614.209517756016 L 1152 610 L 1141.837325142376 605.790482243984 L 1141.837325142376 614.209517756016" stroke-miterlimit="10" stroke-dasharray=""/></g><g><rect fill="#ffffff" stroke="none" x="557" y="584" width="117.06982421875" height="13" transform="matrix(1 0 0 1 10 10)"/></g><g><g><path fill="none" stroke="none"/><text fill="#000000" stroke="none" font-family="Arial" font-size="13px" font-style="normal" font-weight="normal" text-decoration="undefined" x="615.534912109375" y="590.5" text-anchor="middle" dominant-baseline="central" transform="matrix(1 0 0 1 10 10)">19 : 获取订单购买数</text></g></g><g><rect fill="#ffffff" stroke="none" x="1142" y="600" width="14" height="28" transform="matrix(1 0 0 1 10 10)"/></g><g><path fill="none" stroke="#000000" paint-order="fill stroke markers" d=" M 1152 610 L 1166 610 L 1166 638 L 1152 638 L 1152 610 Z Z" stroke-miterlimit="10" stroke-dasharray=""/></g><g><path fill="none" stroke="#000000" paint-order="fill stroke markers" d=" M 1152 618 L 98 618" stroke-miterlimit="10" stroke-dasharray="3"/></g><g><path fill="none" stroke="#000000" paint-order="fill stroke markers" d=" M 108.16267485762415 613.790482243984 L 98 618 L 108.16267485762415 622.209517756016" stroke-miterlimit="10" stroke-dasharray=""/></g><g><rect fill="#ffffff" stroke="none" x="556" y="612" width="117.06982421875" height="13" transform="matrix(1 0 0 1 10 10)"/></g><g><g><path fill="none" stroke="none"/><text fill="#000000" stroke="none" font-family="Arial" font-size="13px" font-style="normal" font-weight="normal" text-decoration="undefined" x="614.534912109375" y="618.5" text-anchor="middle" dominant-baseline="central" transform="matrix(1 0 0 1 10 10)">20 : 返回订单购买数</text></g></g><g><path fill="none" stroke="#000000" paint-order="fill stroke markers" d=" M 98 658 L 1400 658" stroke-miterlimit="10" stroke-dasharray=""/></g><g><path fill="#000000" stroke="none" paint-order="stroke fill markers" d=" M 1389.837325142376 662.209517756016 L 1400 658 L 1389.837325142376 653.790482243984"/></g><g><path fill="none" stroke="#000000" paint-order="fill stroke markers" d=" M 1389.837325142376 662.209517756016 L 1400 658 L 1389.837325142376 653.790482243984 L 1389.837325142376 662.209517756016" stroke-miterlimit="10" stroke-dasharray=""/></g><g><rect fill="#ffffff" stroke="none" x="687" y="632" width="104.06982421875" height="13" transform="matrix(1 0 0 1 10 10)"/></g><g><g><path fill="none" stroke="none"/><text fill="#000000" stroke="none" font-family="Arial" font-size="13px" font-style="normal" font-weight="normal" text-decoration="undefined" x="739.034912109375" y="638.5" text-anchor="middle" dominant-baseline="central" transform="matrix(1 0 0 1 10 10)">21 : 更新库存总数</text></g></g><g><rect fill="#ffffff" stroke="none" x="1390" y="648" width="14" height="28" transform="matrix(1 0 0 1 10 10)"/></g><g><path fill="none" stroke="#000000" paint-order="fill stroke markers" d=" M 1400 658 L 1414 658 L 1414 686 L 1400 686 L 1400 658 Z Z" stroke-miterlimit="10" stroke-dasharray=""/></g><g><path fill="none" stroke="#000000" paint-order="fill stroke markers" d=" M 1400 666 L 98 666" stroke-miterlimit="10" stroke-dasharray="3"/></g><g><path fill="none" stroke="#000000" paint-order="fill stroke markers" d=" M 108.16267485762415 661.790482243984 L 98 666 L 108.16267485762415 670.209517756016" stroke-miterlimit="10" stroke-dasharray=""/></g><g><rect fill="#ffffff" stroke="none" x="699" y="660" width="78.06982421875" height="13" transform="matrix(1 0 0 1 10 10)"/></g><g><g><path fill="none" stroke="none"/><text fill="#000000" stroke="none" font-family="Arial" font-size="13px" font-style="normal" font-weight="normal" text-decoration="undefined" x="738.034912109375" y="666.5" text-anchor="middle" dominant-baseline="central" transform="matrix(1 0 0 1 10 10)">22 : 更新结果</text></g></g><g><path fill="none" stroke="#000000" paint-order="fill stroke markers" d=" M 639 762 L 98 762" stroke-miterlimit="10" stroke-dasharray="3"/></g><g><path fill="none" stroke="#000000" paint-order="fill stroke markers" d=" M 108.16267485762415 757.790482243984 L 98 762 L 108.16267485762415 766.209517756016" stroke-miterlimit="10" stroke-dasharray=""/></g><g><rect fill="#ffffff" stroke="none" x="251" y="756" width="212.646484375" height="13" transform="matrix(1 0 0 1 10 10)"/></g><g><g><path fill="none" stroke="none"/><text fill="#000000" stroke="none" font-family="Arial" font-size="13px" font-style="normal" font-weight="normal" text-decoration="undefined" x="357.3232421875" y="762.5" text-anchor="middle" dominant-baseline="central" transform="matrix(1 0 0 1 10 10)">23 : GroupPayOrderStatus消息接收</text></g></g><g><path fill="none" stroke="#000000" paint-order="fill stroke markers" d=" M 98 794 L 359 794" stroke-miterlimit="10" stroke-dasharray=""/></g><g><path fill="#000000" stroke="none" paint-order="stroke fill markers" d=" M 348.83732514237585 798.209517756016 L 359 794 L 348.83732514237585 789.790482243984"/></g><g><path fill="none" stroke="#000000" paint-order="fill stroke markers" d=" M 348.83732514237585 798.209517756016 L 359 794 L 348.83732514237585 789.790482243984 L 348.83732514237585 798.209517756016" stroke-miterlimit="10" stroke-dasharray=""/></g><g><rect fill="#ffffff" stroke="none" x="176" y="768" width="85.2744140625" height="13" transform="matrix(1 0 0 1 10 10)"/></g><g><g><path fill="none" stroke="none"/><text fill="#000000" stroke="none" font-family="Arial" font-size="13px" font-style="normal" font-weight="normal" text-decoration="undefined" x="218.63720703125" y="774.5" text-anchor="middle" dominant-baseline="central" transform="matrix(1 0 0 1 10 10)">24 : 返还库存</text></g></g><g><rect fill="#ffffff" stroke="none" x="349" y="784" width="14" height="28" transform="matrix(1 0 0 1 10 10)"/></g><g><path fill="none" stroke="#000000" paint-order="fill stroke markers" d=" M 359 794 L 373 794 L 373 822 L 359 822 L 359 794 Z Z" stroke-miterlimit="10" stroke-dasharray=""/></g><g><path fill="none" stroke="#000000" paint-order="fill stroke markers" d=" M 359 810 L 98 810" stroke-miterlimit="10" stroke-dasharray="3"/></g><g><path fill="none" stroke="#000000" paint-order="fill stroke markers" d=" M 108.16267485762415 805.790482243984 L 98 810 L 108.16267485762415 814.209517756016" stroke-miterlimit="10" stroke-dasharray=""/></g><g><rect fill="#ffffff" stroke="none" x="178" y="804" width="78.06982421875" height="13" transform="matrix(1 0 0 1 10 10)"/></g><g><g><path fill="none" stroke="none"/><text fill="#000000" stroke="none" font-family="Arial" font-size="13px" font-style="normal" font-weight="normal" text-decoration="undefined" x="217.034912109375" y="810.5" text-anchor="middle" dominant-baseline="central" transform="matrix(1 0 0 1 10 10)">25 : 返还结果</text></g></g><g><path fill="none" stroke="#000000" paint-order="fill stroke markers" d=" M 50 178 L 1458 178 L 1458 338 L 50 338 L 50 178" stroke-miterlimit="10" stroke-dasharray=""/></g><g><path fill="#ffffff" stroke="none" paint-order="stroke fill markers" d=" M 50 178 L 50 201 L 178.6962890625 201 L 190.1962890625 189.5 L 190.1962890625 178 L 50 178"/></g><g><path fill="none" stroke="#000000" paint-order="fill stroke markers" d=" M 50 178 L 50 201 L 178.6962890625 201 L 190.1962890625 189.5 L 190.1962890625 178 L 50 178 L 50 178" stroke-miterlimit="10" stroke-dasharray=""/></g><g><g><path fill="none" stroke="none"/><text fill="#000000" stroke="none" font-family="Arial" font-size="13px" font-style="normal" font-weight="normal" text-decoration="undefined" x="117.828125" y="179.5" text-anchor="middle" dominant-baseline="central" transform="matrix(1 0 0 1 10 10)">Micropay预下单</text></g></g><g><g><path fill="none" stroke="none"/><text fill="#000000" stroke="none" font-family="Arial" font-size="13px" font-style="normal" font-weight="bold" text-decoration="undefined" x="55.47998046875" y="179.5" text-anchor="middle" dominant-baseline="central" transform="matrix(1 0 0 1 10 10)">seq</text></g></g><g><path fill="none" stroke="#000000" paint-order="fill stroke markers" d=" M 50 362 L 1458 362 L 1458 530 L 50 530 L 50 362" stroke-miterlimit="10" stroke-dasharray=""/></g><g><path fill="#ffffff" stroke="none" paint-order="stroke fill markers" d=" M 50 362 L 50 385 L 191.6962890625 385 L 203.1962890625 373.5 L 203.1962890625 362 L 50 362"/></g><g><path fill="none" stroke="#000000" paint-order="fill stroke markers" d=" M 50 362 L 50 385 L 191.6962890625 385 L 203.1962890625 373.5 L 203.1962890625 362 L 50 362 L 50 362" stroke-miterlimit="10" stroke-dasharray=""/></g><g><g><path fill="none" stroke="none"/><text fill="#000000" stroke="none" font-family="Arial" font-size="13px" font-style="normal" font-weight="normal" text-decoration="undefined" x="124.328125" y="363.5" text-anchor="middle" dominant-baseline="central" transform="matrix(1 0 0 1 10 10)">Micropay付款回调</text></g></g><g><g><path fill="none" stroke="none"/><text fill="#000000" stroke="none" font-family="Arial" font-size="13px" font-style="normal" font-weight="bold" text-decoration="undefined" x="55.47998046875" y="363.5" text-anchor="middle" dominant-baseline="central" transform="matrix(1 0 0 1 10 10)">seq</text></g></g><g><path fill="none" stroke="#000000" paint-order="fill stroke markers" d=" M 50 546 L 1458 546 L 1458 698 L 50 698 L 50 546" stroke-miterlimit="10" stroke-dasharray=""/></g><g><path fill="#ffffff" stroke="none" paint-order="stroke fill markers" d=" M 50 546 L 50 569 L 203.97900390625 569 L 215.47900390625 557.5 L 215.47900390625 546 L 50 546"/></g><g><path fill="none" stroke="#000000" paint-order="fill stroke markers" d=" M 50 546 L 50 569 L 203.97900390625 569 L 215.47900390625 557.5 L 215.47900390625 546 L 50 546 L 50 546" stroke-miterlimit="10" stroke-dasharray=""/></g><g><g><path fill="none" stroke="none"/><text fill="#000000" stroke="none" font-family="Arial" font-size="13px" font-style="normal" font-weight="normal" text-decoration="undefined" x="130.469482421875" y="547.5" text-anchor="middle" dominant-baseline="central" transform="matrix(1 0 0 1 10 10)">Brain发卷&amp;同步库存</text></g></g><g><g><path fill="none" stroke="none"/><text fill="#000000" stroke="none" font-family="Arial" font-size="13px" font-style="normal" font-weight="bold" text-decoration="undefined" x="55.47998046875" y="547.5" text-anchor="middle" dominant-baseline="central" transform="matrix(1 0 0 1 10 10)">seq</text></g></g><g><path fill="none" stroke="#000000" paint-order="fill stroke markers" d=" M 50 730 L 1458 730 L 1458 890 L 50 890 L 50 730" stroke-miterlimit="10" stroke-dasharray=""/></g><g><path fill="#ffffff" stroke="none" paint-order="stroke fill markers" d=" M 50 730 L 50 753 L 257.43896484375 753 L 268.93896484375 741.5 L 268.93896484375 730 L 50 730"/></g><g><path fill="none" stroke="#000000" paint-order="fill stroke markers" d=" M 50 730 L 50 753 L 257.43896484375 753 L 268.93896484375 741.5 L 268.93896484375 730 L 50 730 L 50 730" stroke-miterlimit="10" stroke-dasharray=""/></g><g><g><path fill="none" stroke="none"/><text fill="#000000" stroke="none" font-family="Arial" font-size="13px" font-style="normal" font-weight="normal" text-decoration="undefined" x="157.199462890625" y="731.5" text-anchor="middle" dominant-baseline="central" transform="matrix(1 0 0 1 10 10)">Takeaway取消支付&amp;支付失败</text></g></g><g><g><path fill="none" stroke="none"/><text fill="#000000" stroke="none" font-family="Arial" font-size="13px" font-style="normal" font-weight="bold" text-decoration="undefined" x="55.47998046875" y="731.5" text-anchor="middle" dominant-baseline="central" transform="matrix(1 0 0 1 10 10)">seq</text></g></g></g></svg>